<svg xmlns="http://www.w3.org/2000/svg" viewBox="0 0 36 36" id="gmail"><path stroke="#fff" fill="#fff" d="M8.156 26.25H9.75V14.326L18 20.25l8.25-5.924V26.25h1.594c.797 0 1.406-.596 1.406-1.375v-13.75c0-.39-.151-.733-.404-.979a1.413 1.413 0 0 0-1.002-.396h-.469L18 16.396 8.625 9.75h-.469c-.398 0-.75.147-1.002.396a1.352 1.352 0 0 0-.404.979v13.75c0 .779.608 1.375 1.406 1.375z"></path><path stroke="#fff" fill="#fff" d="m28.5 14.326-2.25 1.616V26.25h1.594c.241 0 .461-.06.656-.157V14.326zm-8.25 2.07 8.668-6.144c-.027-.032-.041-.076-.072-.105a1.417 1.417 0 0 0-1.002-.396h-.469l-8.25 5.848 1.125.797zM9 24.875v-13.75c0-.342.122-.645.322-.881l-.697-.494h-.469c-.398 0-.75.147-1.002.396a1.352 1.352 0 0 0-.404.979v13.75c0 .779.608 1.375 1.406 1.375H9.75v-.157A1.342 1.342 0 0 1 9 24.875zM12 14.326v1.615l6 4.309 1.125-.808z"></path><path  fill="#fff" d="M27.844 27H26.25a.75.75 0 0 1-.75-.75V15.788l-7.062 5.072a.75.75 0 0 1-.875 0L10.5 15.788V26.25a.75.75 0 0 1-.75.75H8.156C6.947 27 6 26.066 6 24.875v-13.75c0-.581.224-1.12.631-1.516A2.149 2.149 0 0 1 8.156 9h.469c.155 0 .307.048.434.138L18 15.477l8.941-6.338A.745.745 0 0 1 27.375 9h.469c.584 0 1.127.217 1.527.611.404.392.629.931.629 1.514v13.75C30 26.066 29.053 27 27.844 27zM27 25.5h.844c.38 0 .656-.263.656-.625v-13.75a.6.6 0 0 0-.177-.441.672.672 0 0 0-.479-.184h-.229l-9.181 6.508a.747.747 0 0 1-.867 0L8.386 10.5h-.23a.667.667 0 0 0-.475.179.608.608 0 0 0-.181.446v13.75c0 .362.276.625.656.625H9V14.326a.75.75 0 0 1 1.187-.609L18 19.327l7.812-5.61a.751.751 0 0 1 1.188.609V25.5z"></path></svg>